<svg width="785" height="495" viewBox="0 0 785 495" fill="none" xmlns="http://www.w3.org/2000/svg">
<g clip-path="url(#clip0)">
<path d="M785 203.31H783.645V166.884C783.645 155.22 774.229 145.773 762.602 145.773H685.707C674.08 145.773 664.664 155.22 664.664 166.884V366.759C664.664 378.424 674.08 387.87 685.707 387.87H762.673C774.3 387.87 783.716 378.424 783.716 366.759V229.216H785.071V203.31H785Z" fill="#3F3D56"/>
<path d="M779.222 168.101V367.69C779.222 376.42 772.16 383.434 763.529 383.434H686.206C677.504 383.434 670.513 376.349 670.513 367.69V168.101C670.513 159.37 677.504 152.357 686.206 152.357H695.622C694.053 156.222 695.907 160.587 699.759 162.09C700.615 162.448 701.614 162.662 702.541 162.662H746.624C750.761 162.662 754.042 159.299 754.114 155.22C754.114 154.218 753.9 153.288 753.543 152.357H763.601C772.16 152.357 779.222 159.442 779.222 168.101Z" fill="#D0CDE1"/>
<path d="M764.599 254.549H674.722V278.88H764.599V254.549Z" fill="#F8FF64"/>
<path d="M768.166 274.587H681.142C679.929 274.587 679.002 273.656 679.002 272.44V250.971C679.002 249.754 679.929 248.824 681.142 248.824H768.166C769.378 248.824 770.306 249.754 770.306 250.971V272.44C770.234 273.656 769.307 274.587 768.166 274.587ZM681.142 250.255C680.714 250.255 680.429 250.541 680.429 250.971V272.44C680.429 272.869 680.714 273.155 681.142 273.155H768.166C768.594 273.155 768.879 272.869 768.879 272.44V250.971C768.879 250.541 768.594 250.255 768.166 250.255H681.142Z" fill="#3F3D56"/>
<path d="M696.121 268.146H684.708V269.577H696.121V268.146Z" fill="#3F3D56"/>
<path d="M711.814 268.146H700.401V269.577H711.814V268.146Z" fill="#3F3D56"/>
<path d="M727.507 268.146H716.094V269.577H727.507V268.146Z" fill="#3F3D56"/>
<path d="M743.2 268.146H731.787V269.577H743.2V268.146Z" fill="#3F3D56"/>
<path d="M758.893 268.146H747.48V269.577H758.893V268.146Z" fill="#3F3D56"/>
<path opacity="0.1" d="M779.222 347.437V367.761C779.222 376.492 772.16 383.505 763.529 383.505H686.206C677.504 383.505 670.513 376.42 670.513 367.761V274.372L779.222 347.437Z" fill="black"/>
<path d="M408.657 328.974H71.2599V495H408.657V328.974Z" fill="#D0CDE1"/>
<path opacity="0.1" d="M322.845 495H72.6865C71.9019 495 71.2599 494.356 71.2599 493.569V330.406C71.2599 329.618 71.9019 328.974 72.6865 328.974H75.8251L322.845 495Z" fill="black"/>
<path d="M750.333 351.159H227.475V352.59H750.333V351.159Z" fill="#3F3D56"/>
<path d="M392.75 3.0772H243.311V0H175.546V3.0772H25.5366C19.9727 3.0772 15.4075 7.58566 15.4075 13.2391V218.553C15.4075 224.135 19.9014 228.715 25.5366 228.715H392.75C398.314 228.715 402.879 224.206 402.879 218.553V13.2391C402.879 7.65722 398.314 3.0772 392.75 3.0772Z" fill="#3F3D56"/>
<path d="M389.326 21.0395H28.9604V224.993H389.326V21.0395Z" fill="#D0CDE1"/>
<path d="M208.786 15.4576C210.835 15.4576 212.496 13.7915 212.496 11.7363C212.496 9.68111 210.835 8.01505 208.786 8.01505C206.738 8.01505 205.077 9.68111 205.077 11.7363C205.077 13.7915 206.738 15.4576 208.786 15.4576Z" fill="#F8FF64"/>
<path d="M136.171 97.1107H127.612C126.399 97.1107 125.472 96.1804 125.472 94.9639V86.3763C125.472 85.1597 126.399 84.2294 127.612 84.2294H136.171C137.384 84.2294 138.311 85.1597 138.311 86.3763V94.9639C138.24 96.1804 137.313 97.1107 136.171 97.1107ZM127.612 85.6607C127.184 85.6607 126.898 85.9469 126.898 86.3763V94.9639C126.898 95.3932 127.184 95.6795 127.612 95.6795H136.171C136.599 95.6795 136.885 95.3932 136.885 94.9639V86.3763C136.885 85.9469 136.599 85.6607 136.171 85.6607H127.612V85.6607Z" fill="#3F3D56"/>
<path d="M288.82 95.6795H126.185V97.1107H288.82V95.6795Z" fill="#3F3D56"/>
<path d="M284.54 135.039H246.735V146.489H284.54V135.039Z" fill="#F8FF64"/>
<path d="M287.393 143.627H252.441C251.229 143.627 250.301 142.696 250.301 141.48V132.892C250.301 131.676 251.229 130.745 252.441 130.745H287.393C288.606 130.745 289.533 131.676 289.533 132.892V141.48C289.462 142.696 288.535 143.627 287.393 143.627ZM252.441 132.177C252.013 132.177 251.728 132.463 251.728 132.892V141.48C251.728 141.909 252.013 142.195 252.441 142.195H287.393C287.821 142.195 288.107 141.909 288.107 141.48V132.892C288.107 132.463 287.821 132.177 287.393 132.177H252.441Z" fill="#3F3D56"/>
<path d="M573.432 147.92H502.1V198.014H573.432V147.92Z" fill="#F8FF64"/>
<path d="M580.565 194.078H512.087C510.517 194.078 509.234 192.79 509.234 191.216V143.984C509.234 142.41 510.517 141.122 512.087 141.122H580.565C582.134 141.122 583.418 142.41 583.418 143.984V191.216C583.347 192.79 582.134 194.078 580.565 194.078ZM512.087 143.984V191.216H580.565V143.984H512.087Z" fill="#3F3D56"/>
<path d="M572.718 142.195H569.865C569.865 129.171 559.308 118.58 546.326 118.58C533.343 118.58 522.786 129.171 522.786 142.195H519.933C519.933 127.596 531.774 115.717 546.326 115.717C560.877 115.717 572.718 127.596 572.718 142.195Z" fill="#3F3D56"/>
<path d="M553.459 161.875C553.459 157.939 550.249 154.719 546.326 154.719C542.403 154.719 539.193 157.939 539.193 161.875C539.193 164.38 540.477 166.67 542.545 167.958V175.615C542.545 177.69 544.257 179.408 546.326 179.408C548.394 179.408 550.106 177.69 550.106 175.615V167.958C552.175 166.67 553.459 164.38 553.459 161.875Z" fill="#3F3D56"/>
<path d="M214.279 402.684H202.866V404.115H214.279V402.684Z" fill="#3F3D56"/>
<path d="M229.972 402.684H218.559V404.115H229.972V402.684Z" fill="#3F3D56"/>
<path d="M245.665 402.684H234.252V404.115H245.665V402.684Z" fill="#3F3D56"/>
<path d="M261.358 402.684H249.945V404.115H261.358V402.684Z" fill="#3F3D56"/>
<path d="M277.05 402.684H265.637V404.115H277.05V402.684Z" fill="#3F3D56"/>
<path d="M423.636 482.834H89.0927C87.5234 482.834 86.2394 481.546 86.2394 479.972V316.809C86.2394 315.234 87.5234 313.946 89.0927 313.946H423.636C425.205 313.946 426.489 315.234 426.489 316.809V479.972C426.418 481.546 425.205 482.834 423.636 482.834ZM89.0927 316.809V479.972H423.636V316.809H89.0927V316.809Z" fill="#3F3D56"/>
<path d="M104.072 341.14C106.436 341.14 108.352 339.218 108.352 336.846C108.352 334.475 106.436 332.552 104.072 332.552C101.709 332.552 99.7924 334.475 99.7924 336.846C99.7924 339.218 101.709 341.14 104.072 341.14Z" fill="#3F3D56"/>
<path d="M119.052 341.14C121.415 341.14 123.332 339.218 123.332 336.846C123.332 334.475 121.415 332.552 119.052 332.552C116.688 332.552 114.772 334.475 114.772 336.846C114.772 339.218 116.688 341.14 119.052 341.14Z" fill="#3F3D56"/>
<path d="M134.031 341.14C136.395 341.14 138.311 339.218 138.311 336.846C138.311 334.475 136.395 332.552 134.031 332.552C131.668 332.552 129.751 334.475 129.751 336.846C129.751 339.218 131.668 341.14 134.031 341.14Z" fill="#3F3D56"/>
<path d="M288.107 412.703H191.81C190.597 412.703 189.67 411.772 189.67 410.556V386.225C189.67 385.008 190.597 384.078 191.81 384.078H288.107C289.319 384.078 290.247 385.008 290.247 386.225V410.556C290.175 411.772 289.248 412.703 288.107 412.703ZM191.81 385.509C191.382 385.509 191.096 385.795 191.096 386.225V410.556C191.096 410.985 191.382 411.272 191.81 411.272H288.107C288.535 411.272 288.82 410.985 288.82 410.556V386.225C288.82 385.795 288.535 385.509 288.107 385.509H191.81Z" fill="#3F3D56"/>
<path d="M312.359 413.418C319.45 413.418 325.199 407.651 325.199 400.537C325.199 393.423 319.45 387.656 312.359 387.656C305.268 387.656 299.52 393.423 299.52 400.537C299.52 407.651 305.268 413.418 312.359 413.418Z" fill="#F8FF64"/>
<path d="M316.639 411.987C309.149 411.987 303.086 405.904 303.086 398.39C303.086 390.876 309.149 384.793 316.639 384.793C324.129 384.793 330.192 390.876 330.192 398.39C330.121 405.904 324.058 411.987 316.639 411.987ZM316.639 386.225C309.934 386.225 304.513 391.663 304.513 398.39C304.513 405.117 309.934 410.556 316.639 410.556C323.344 410.556 328.766 405.117 328.766 398.39C328.694 391.663 323.273 386.225 316.639 386.225Z" fill="#3F3D56"/>
<path d="M316.782 403.471L309.863 396.53L311.931 394.526L316.425 399.034L328.98 381.144L331.333 382.79L316.782 403.471Z" fill="#3F3D56"/>
<path opacity="0.1" d="M309.435 224.922H28.9604V36.4255L309.435 224.922Z" fill="black"/>
<path d="M412.936 221.272H377.77V218.696C377.77 218.41 377.556 218.195 377.271 218.195H365.216C364.93 218.195 364.716 218.41 364.716 218.696V221.272H357.155V218.696C357.155 218.41 356.941 218.195 356.656 218.195H344.601C344.316 218.195 344.102 218.41 344.102 218.696V221.272H336.541V218.696C336.541 218.41 336.327 218.195 336.041 218.195H323.986C323.701 218.195 323.487 218.41 323.487 218.696V221.272H315.997V218.696C315.997 218.41 315.783 218.195 315.498 218.195H303.443C303.158 218.195 302.944 218.41 302.944 218.696V221.272H295.383V218.696C295.383 218.41 295.169 218.195 294.883 218.195H282.828C282.543 218.195 282.329 218.41 282.329 218.696V221.272H274.768V218.696C274.768 218.41 274.554 218.195 274.268 218.195H262.214C261.928 218.195 261.714 218.41 261.714 218.696V221.272H254.153V218.696C254.153 218.41 253.939 218.195 253.654 218.195H159.283C158.997 218.195 158.783 218.41 158.783 218.696V221.272H151.222V218.696C151.222 218.41 151.008 218.195 150.723 218.195H138.668C138.383 218.195 138.169 218.41 138.169 218.696V221.272H130.607V218.696C130.607 218.41 130.393 218.195 130.108 218.195H118.053C117.768 218.195 117.554 218.41 117.554 218.696V221.272H109.993V218.696C109.993 218.41 109.779 218.195 109.493 218.195H97.4384C97.1531 218.195 96.9391 218.41 96.9391 218.696V221.272H89.378V218.696C89.378 218.41 89.164 218.195 88.8787 218.195H76.8237C76.5384 218.195 76.3244 218.41 76.3244 218.696V221.272H68.8346V218.696C68.8346 218.41 68.6206 218.195 68.3353 218.195H56.2803C55.995 218.195 55.781 218.41 55.781 218.696V221.272H48.2199V218.696C48.2199 218.41 48.0059 218.195 47.7206 218.195H35.6656C35.3803 218.195 35.1663 218.41 35.1663 218.696V221.272H12.055C5.42117 221.272 0 226.711 0 233.366V238.805C0 245.46 5.42117 250.899 12.055 250.899H412.936C419.57 250.899 424.991 245.46 424.991 238.805V233.366C425.063 226.639 419.642 221.272 412.936 221.272Z" fill="#3F3D56"/>
<path d="M303.086 155.792H114.772C113.559 155.792 112.632 154.862 112.632 153.645V74.9262C112.632 73.7097 113.559 72.7794 114.772 72.7794H303.086C304.299 72.7794 305.226 73.7097 305.226 74.9262V153.645C305.155 154.862 304.228 155.792 303.086 155.792ZM114.772 74.2106C114.344 74.2106 114.059 74.4969 114.059 74.9262V153.645C114.059 154.075 114.344 154.361 114.772 154.361H303.086C303.514 154.361 303.8 154.075 303.8 153.645V74.9262C303.8 74.4969 303.514 74.2106 303.086 74.2106H114.772V74.2106Z" fill="#3F3D56"/>
<path d="M136.171 118.58H127.612C126.399 118.58 125.472 117.649 125.472 116.433V107.845C125.472 106.629 126.399 105.698 127.612 105.698H136.171C137.384 105.698 138.311 106.629 138.311 107.845V116.433C138.24 117.649 137.313 118.58 136.171 118.58ZM127.612 107.13C127.184 107.13 126.898 107.416 126.898 107.845V116.433C126.898 116.862 127.184 117.148 127.612 117.148H136.171C136.599 117.148 136.885 116.862 136.885 116.433V107.845C136.885 107.416 136.599 107.13 136.171 107.13H127.612Z" fill="#3F3D56"/>
<path d="M288.82 117.148H126.185V118.58H288.82V117.148Z" fill="#3F3D56"/>
<path d="M711.814 193.005H188.956V194.436H711.814V193.005Z" fill="#3F3D56"/>
<path d="M188.956 203.024C194.472 203.024 198.943 198.538 198.943 193.005C198.943 187.472 194.472 182.986 188.956 182.986C183.441 182.986 178.97 187.472 178.97 193.005C178.97 198.538 183.441 203.024 188.956 203.024Z" fill="#3F3D56"/>
<path d="M711.814 202.308C716.148 202.308 719.661 198.784 719.661 194.436C719.661 190.089 716.148 186.564 711.814 186.564C707.481 186.564 703.968 190.089 703.968 194.436C703.968 198.784 707.481 202.308 711.814 202.308Z" fill="#3F3D56"/>
<path d="M750.333 360.462C754.667 360.462 758.18 356.938 758.18 352.59C758.18 348.242 754.667 344.718 750.333 344.718C746 344.718 742.487 348.242 742.487 352.59C742.487 356.938 746 360.462 750.333 360.462Z" fill="#3F3D56"/>
<path d="M229.615 360.462C233.949 360.462 237.462 356.938 237.462 352.59C237.462 348.242 233.949 344.718 229.615 344.718C225.282 344.718 221.769 348.242 221.769 352.59C221.769 356.938 225.282 360.462 229.615 360.462Z" fill="#3F3D56"/>
</g>
<defs>
<clipPath id="clip0">
<rect width="785" height="495" fill="white"/>
</clipPath>
</defs>
</svg>
